<svg width="32" height="20" viewBox="0 0 253 196" fill="none" xmlns="http://www.w3.org/2000/svg">
<path d="M37.0776 60.8276H185.388C190.016 60.8276 194.454 62.2517 197.726 64.7867C200.998 67.3217 202.836 70.7598 202.836 74.3448V121.655C202.836 125.24 200.998 128.678 197.726 131.213C194.454 133.748 190.016 135.172 185.388 135.172H37.0776C32.45 135.172 28.012 133.748 24.7398 131.213C21.4676 128.678 19.6293 125.24 19.6293 121.655V74.3448C19.6293 70.7598 21.4676 67.3217 24.7398 64.7867C28.012 62.2517 32.45 60.8276 37.0776 60.8276V60.8276Z" stroke="black" stroke-miterlimit="10"/>
<path d="M41.4397 70.9655H154.853V125.034H41.4397C39.1259 125.034 36.9069 124.322 35.2708 123.055C33.6347 121.787 32.7155 120.068 32.7155 118.276V77.7241C32.7155 75.9316 33.6347 74.2126 35.2708 72.9451C36.9069 71.6776 39.1259 70.9655 41.4397 70.9655ZM215.922 81.4414V114.552C220.848 113.773 225.275 111.7 228.455 108.683C231.634 105.666 233.371 101.891 233.371 97.9966C233.371 94.102 231.634 90.3269 228.455 87.3102C225.275 84.2934 220.848 82.2202 215.922 81.4414V81.4414Z" fill="black"/>
<path d="M37.0776 60.8276H185.388C190.016 60.8276 194.454 62.2517 197.726 64.7867C200.998 67.3217 202.836 70.7598 202.836 74.3448V121.655C202.836 125.24 200.998 128.678 197.726 131.213C194.454 133.748 190.016 135.172 185.388 135.172H37.0776C32.45 135.172 28.012 133.748 24.7398 131.213C21.4676 128.678 19.6293 125.24 19.6293 121.655V74.3448C19.6293 70.7598 21.4676 67.3217 24.7398 64.7867C28.012 62.2517 32.45 60.8276 37.0776 60.8276V60.8276Z" stroke="white" stroke-miterlimit="10"/>
<path d="M41.4397 70.9655H154.853V125.034H41.4397C39.1259 125.034 36.9069 124.322 35.2708 123.055C33.6347 121.787 32.7155 120.068 32.7155 118.276V77.7241C32.7155 75.9316 33.6347 74.2126 35.2708 72.9451C36.9069 71.6776 39.1259 70.9655 41.4397 70.9655ZM215.922 81.4414V114.552C220.848 113.773 225.275 111.7 228.455 108.683C231.634 105.666 233.371 101.891 233.371 97.9966C233.371 94.102 231.634 90.3269 228.455 87.3102C225.275 84.2934 220.848 82.2202 215.922 81.4414V81.4414Z" fill="white"/>
</svg>
