<svg width="20px" height="20px" viewBox="0 0 524 524" fill="none" xmlns="http://www.w3.org/2000/svg">
<g clip-path="url(#clip0_3_31)">
<path d="M78.453 250.507H19.615C8.782 250.507 0 259.29 0 270.122V495.546C0 506.379 8.782 515.161 19.615 515.161H78.453C89.285 515.161 98.067 506.379 98.067 495.546V270.116C98.073 259.283 89.285 250.507 78.453 250.507Z" fill="white"/>
<path d="M220.143 165.965H161.306C150.473 165.965 141.691 174.747 141.691 185.58V495.545C141.691 506.378 150.473 515.16 161.306 515.16H220.143C230.976 515.16 239.758 506.378 239.758 495.545V185.574C239.757 174.748 230.975 165.965 220.143 165.965Z" fill="white"/>
<path d="M361.833 81.424H302.989C292.157 81.424 283.375 90.206 283.375 101.038V495.545C283.375 506.378 292.157 515.16 302.989 515.16H361.827C372.659 515.16 381.441 506.378 381.441 495.545V101.032C381.441 90.2 372.659 81.424 361.833 81.424Z" fill="white"/>
<path d="M503.701 8.155H444.863C434.03 8.155 425.248 16.937 425.248 27.77V495.546C425.248 506.379 434.03 515.161 444.863 515.161H503.701C514.533 515.161 523.315 506.379 523.315 495.546V27.764C523.315 16.931 514.533 8.155 503.701 8.155Z" fill="#333333"/>
</g>
<defs>
<clipPath id="clip0_3_31">
<rect width="523.315" height="523.315" fill="white"/>
</clipPath>
</defs>
</svg>
