<svg width="32" height="20" viewBox="0 0 318 225" fill="none" xmlns="http://www.w3.org/2000/svg">
<path d="M22.21 88.341L0 66.131C42.401 23.728 98.694 0.376007 158.509 0.376007C218.322 0.376007 274.614 23.727 317.016 66.127L294.806 88.337C258.337 51.869 209.932 31.785 158.509 31.785C107.084 31.785 58.679 51.87 22.21 88.341Z" fill="#333333"/>
<path d="M63.944 130.075L41.733 107.865C72.97 76.628 114.442 59.426 158.508 59.426C202.575 59.426 244.045 76.627 275.282 107.863L253.072 130.073C227.768 104.77 194.184 90.835 158.508 90.835C122.832 90.835 89.248 104.77 63.944 130.075Z" fill="white"/>
<path d="M105.679 171.811L83.468 149.601C103.54 129.53 130.191 118.476 158.509 118.476C186.827 118.476 213.476 129.529 233.548 149.599L211.337 171.809C197.199 157.672 178.439 149.886 158.509 149.886C138.58 149.885 119.817 157.672 105.679 171.811Z" fill="white"/>
<path d="M158.509 178.154C145.673 178.154 134.052 183.358 125.638 191.769L158.509 224.64L191.38 191.769C182.967 183.357 171.345 178.154 158.509 178.154Z" fill="white"/>
</svg>
